<svg xmlns="http://www.w3.org/2000/svg" version="1.1" viewBox="0.00 0.00 1024.00 1024.00">
<g id="Parent-Group"><g fill="rgba(0,0,0,0)" id="Group-rgba(0,0,0,0)">
<path d="   M 1024.00 0.00   L 1024.00 1024.00   L 0.00 1024.00   L 0.00 0.00   L 1024.00 0.00   Z   M 848.5048 214.5414   A 2.09 2.09 0.0 0 0 845.7221 213.5450   L 828.5807 221.6477   A 2.09 2.09 0.0 0 0 827.5844 224.4304   L 827.8152 224.9186   A 2.09 2.09 0.0 0 0 830.5979 225.9150   L 847.7393 217.8123   A 2.09 2.09 0.0 0 0 848.7356 215.0296   L 848.5048 214.5414   Z   M 870.0437 236.8190   A 2.12 2.12 0.0 0 0 867.2900 235.6331   L 836.9817 247.6943   A 2.12 2.12 0.0 0 0 835.7958 250.4479   L 835.9363 250.8010   A 2.12 2.12 0.0 0 0 838.6900 251.9869   L 868.9983 239.9257   A 2.12 2.12 0.0 0 0 870.1842 237.1721   L 870.0437 236.8190   Z   M 207.10 787.26   Q 208.83 791.82 211.27 793.04   Q 223.08 798.95 242.86 802.87   Q 268.47 807.94 295.70 810.77   Q 301.34 811.35 305.88 811.95   Q 310.95 812.61 316.10 812.97   Q 331.38 814.02 346.45 815.47   Q 348.67 815.69 350.75 815.80   Q 380.68 817.49 410.77 818.59   Q 411.67 818.62 412.64 818.22   Q 413.68 817.80 414.53 817.67   Q 414.80 821.34 418.50 821.77   Q 422.97 822.29 425.73 818.91   Q 472.13 819.68 492.25 819.66   C 508.60 819.64 533.64 819.32 554.76 818.41   Q 574.13 817.56 593.50 816.81   Q 611.24 816.12 646.92 812.89   Q 650.21 815.97 654.74 814.70   Q 657.03 814.06 658.87 811.71   Q 664.59 811.75 670.97 811.09   Q 692.34 808.86 717.00 804.78   Q 734.29 801.92 750.50 796.16   Q 752.86 795.33 757.38 792.61   Q 760.55 790.72 760.85 787.32   L 922.61 787.39   Q 925.16 787.39 924.74 784.88   L 924.69 784.53   Q 924.38 782.65 922.48 782.66   L 879.30 782.72   Q 878.87 782.72 878.87 782.30   L 878.84 496.70   A 2.20 2.19 -87.6 0 0 876.83 494.51   C 872.26 494.14 867.51 493.99 863.04 493.55   Q 786.12 485.94 710.21 482.66   A 0.51 0.50 0.6 0 1 709.72 482.17   Q 709.41 468.40 709.68 452.87   A 0.71 0.71 0.0 0 1 710.34 452.17   C 726.47 451.00 736.97 438.62 733.58 422.08   Q 732.55 417.07 729.41 413.05   Q 728.99 412.52 729.45 412.04   Q 748.56 391.76 758.19 368.19   Q 768.71 342.43 777.44 315.88   A 0.66 0.65 20.5 0 1 778.32 315.48   Q 791.35 320.95 803.97 326.74   Q 805.36 327.38 806.47 326.87   A 1.40 1.40 0.0 0 0 807.27 325.53   C 806.15 304.72 805.02 284.51 803.29 264.39   A 1.78 1.78 0.0 0 0 802.05 262.84   Q 800.73 262.43 799.71 263.13   Q 773.35 281.21 748.51 298.69   C 745.82 300.58 747.32 303.00 749.73 303.90   Q 761.32 308.23 773.20 313.15   Q 773.66 313.34 773.51 313.81   Q 766.52 335.07 758.38 356.28   Q 754.06 367.55 749.70 376.30   Q 740.97 393.85 726.60 408.58   Q 726.26 408.93 725.88 408.63   Q 715.07 400.17 701.54 402.33   C 688.69 404.39 679.72 414.11 679.69 427.31   A 0.59 0.59 0.0 0 1 678.98 427.89   C 647.60 421.29 619.00 407.04 593.03 387.04   A 0.59 0.57 31.6 0 1 592.85 386.33   C 598.95 373.30 587.11 358.06 573.04 361.79   Q 565.44 363.81 562.08 369.33   Q 554.72 381.44 564.30 392.41   Q 564.62 392.78 564.37 393.19   Q 556.94 405.34 550.39 419.07   Q 546.95 426.27 542.30 432.22   C 527.60 451.02 510.19 467.01 487.39 472.76   Q 479.38 474.79 468.27 474.70   Q 440.43 474.49 415.79 464.01   A 0.51 0.50 23.3 0 1 415.52 463.35   C 417.94 457.64 416.95 450.16 412.97 445.40   C 406.95 438.18 396.90 436.69 389.30 442.14   C 380.02 448.79 377.84 462.73 387.11 470.55   Q 387.55 470.92 387.38 471.46   Q 382.41 487.48 376.94 499.37   Q 365.94 523.28 349.69 553.23   Q 330.06 589.44 302.16 619.21   A 0.83 0.82 42.3 0 1 301.00 619.26   Q 291.03 610.31 278.31 612.81   C 270.88 614.27 262.78 619.87 258.67 626.29   C 248.90 641.57 254.32 663.31 274.57 665.86   A 0.44 0.44 0.0 0 1 274.95 666.28   L 275.31 683.97   Q 275.31 684.36 274.94 684.47   Q 266.39 686.92 257.93 689.93   C 226.50 701.09 194.80 714.01 163.37 726.78   A 1.66 1.66 0.0 0 0 162.34 728.30   L 162.23 782.23   A 0.46 0.46 0.0 0 1 161.77 782.69   L 117.59 782.68   Q 115.32 782.68 115.09 784.94   Q 115.03 785.58 115.27 786.22   A 1.76 1.74 -9.9 0 0 116.90 787.35   Q 138.17 787.51 158.88 787.29   C 161.13 787.27 163.32 787.91 165.55 787.64   Q 167.81 787.37 170.25 787.39   Q 188.24 787.51 207.10 787.26   Z   M 879.1646 270.8123   A 2.22 2.22 0.0 0 0 876.7737 268.7775   L 847.6877 271.1177   A 2.22 2.22 0.0 0 0 845.6529 273.5086   L 845.6754 273.7877   A 2.22 2.22 0.0 0 0 848.0663 275.8225   L 877.1523 273.4823   A 2.22 2.22 0.0 0 0 879.1871 271.0914   L 879.1646 270.8123   Z   M 874.0284 303.6792   A 2.19 2.19 0.0 0 0 871.9600 301.3740   L 848.6741 300.1129   A 2.19 2.19 0.0 0 0 846.3689 302.1812   L 846.3516 302.5008   A 2.19 2.19 0.0 0 0 848.4200 304.8060   L 871.7059 306.0671   A 2.19 2.19 0.0 0 0 874.0111 303.9988   L 874.0284 303.6792   Z   M 175.3443 587.2920   A 1.87 1.87 0.0 0 0 174.7945 584.7052   L 157.6017 573.5401   A 1.87 1.87 0.0 0 0 155.0150 574.0900   L 154.5357 574.8280   A 1.87 1.87 0.0 0 0 155.0855 577.4148   L 172.2783 588.5799   A 1.87 1.87 0.0 0 0 174.8650 588.0300   L 175.3443 587.2920   Z   M 166.7804 617.0715   A 2.04 2.04 0.0 0 0 166.1609 614.2538   L 137.1974 595.7309   A 2.04 2.04 0.0 0 0 134.3797 596.3504   L 134.0996 596.7885   A 2.04 2.04 0.0 0 0 134.7191 599.6062   L 163.6826 618.1291   A 2.04 2.04 0.0 0 0 166.5003 617.5096   L 166.7804 617.0715   Z   M 152.5196 635.7038   A 2.30 2.30 0.0 0 0 150.9527 632.8535   L 133.7442 627.8539   A 2.30 2.30 0.0 0 0 130.8938 629.4209   L 130.8604 629.5362   A 2.30 2.30 0.0 0 0 132.4273 632.3865   L 149.6358 637.3861   A 2.30 2.30 0.0 0 0 152.4862 635.8191   L 152.5196 635.7038   Z   M 151.6432 661.8340   A 1.92 1.92 0.0 0 0 149.8158 659.8257   L 124.6637 658.6395   A 1.92 1.92 0.0 0 0 122.6554 660.4669   L 122.6168 661.2860   A 1.92 1.92 0.0 0 0 124.4442 663.2943   L 149.5963 664.4805   A 1.92 1.92 0.0 0 0 151.6046 662.6531   L 151.6432 661.8340   Z   M 880.6220 798.0019   A 5.82 4.24 -18.1 0 0 873.7727 795.7798   A 5.82 4.24 -18.1 0 0 869.5580 801.6181   A 5.82 4.24 -18.1 0 0 876.4073 803.8402   A 5.82 4.24 -18.1 0 0 880.6220 798.0019   Z   M 852.8112 804.1350   A 6.01 4.14 -3.1 0 0 846.5861 800.3261   A 6.01 4.14 -3.1 0 0 840.8088 804.7850   A 6.01 4.14 -3.1 0 0 847.0339 808.5939   A 6.01 4.14 -3.1 0 0 852.8112 804.1350   Z   M 209.5670 806.7183   A 5.48 4.05 -1.9 0 0 203.9557 802.8522   A 5.48 4.05 -1.9 0 0 198.6130 807.0817   A 5.48 4.05 -1.9 0 0 204.2243 810.9478   A 5.48 4.05 -1.9 0 0 209.5670 806.7183   Z   M 161.3189 810.4117   A 5.17 3.59 -1.2 0 0 156.0748 806.9308   A 5.17 3.59 -1.2 0 0 150.9811 810.6283   A 5.17 3.59 -1.2 0 0 156.2252 814.1092   A 5.17 3.59 -1.2 0 0 161.3189 810.4117   Z   M 951.2083 810.1893   A 5.59 3.63 -3.7 0 0 945.3957 806.9276   A 5.59 3.63 -3.7 0 0 940.0517 810.9107   A 5.59 3.63 -3.7 0 0 945.8643 814.1724   A 5.59 3.63 -3.7 0 0 951.2083 810.1893   Z   M 758.0476 811.2073   A 5.93 3.94 -3.7 0 0 751.8757 807.6582   A 5.93 3.94 -3.7 0 0 746.2124 811.9727   A 5.93 3.94 -3.7 0 0 752.3843 815.5218   A 5.93 3.94 -3.7 0 0 758.0476 811.2073   Z   M 892.9842 814.7161   A 6.05 3.91 -2.5 0 0 886.7694 811.0737   A 6.05 3.91 -2.5 0 0 880.8958 815.2439   A 6.05 3.91 -2.5 0 0 887.1106 818.8863   A 6.05 3.91 -2.5 0 0 892.9842 814.7161   Z   M 229.6310 818.3112   A 6.72 4.91 -7.6 0 0 222.3206 814.3331   A 6.72 4.91 -7.6 0 0 216.3090 820.0888   A 6.72 4.91 -7.6 0 0 223.6194 824.0669   A 6.72 4.91 -7.6 0 0 229.6310 818.3112   Z   M 293.9637 818.5940   A 5.24 3.62 -2.8 0 0 288.5532 815.2343   A 5.24 3.62 -2.8 0 0 283.4963 819.1060   A 5.24 3.62 -2.8 0 0 288.9068 822.4657   A 5.24 3.62 -2.8 0 0 293.9637 818.5940   Z   M 145.2486 819.0323   A 5.63 3.60 -1.3 0 0 139.5383 815.5609   A 5.63 3.60 -1.3 0 0 133.9914 819.2877   A 5.63 3.60 -1.3 0 0 139.7017 822.7591   A 5.63 3.60 -1.3 0 0 145.2486 819.0323   Z   M 542.6661 825.3886   A 5.77 3.71 -2.1 0 0 536.7641 821.8925   A 5.77 3.71 -2.1 0 0 531.1339 825.8114   A 5.77 3.71 -2.1 0 0 537.0359 829.3075   A 5.77 3.71 -2.1 0 0 542.6661 825.3886   Z   M 743.27 845.39   A 2.36 2.36 0.0 0 0 740.91 843.03   A 2.36 2.36 0.0 0 0 738.55 845.39   A 2.36 2.36 0.0 0 0 740.91 847.75   A 2.36 2.36 0.0 0 0 743.27 845.39   Z   M 731.5321 845.7038   A 1.86 1.86 0.0 0 0 729.6818 843.8341   L 705.2222 843.7060   A 1.86 1.86 0.0 0 0 703.3524 845.5562   L 703.3479 846.4162   A 1.86 1.86 0.0 0 0 705.1982 848.2859   L 729.6578 848.4140   A 1.86 1.86 0.0 0 0 731.5276 846.5638   L 731.5321 845.7038   Z   M 109.8803 847.6533   A 2.35 2.35 0.0 0 0 107.5468 845.2870   L 94.1071 845.1931   A 2.35 2.35 0.0 0 0 91.7408 847.5267   L 91.7397 847.6867   A 2.35 2.35 0.0 0 0 94.0732 850.0530   L 107.5129 850.1469   A 2.35 2.35 0.0 0 0 109.8792 847.8133   L 109.8803 847.6533   Z" />
<path d="   M 605.71 522.22   A 1.95 1.95 0.0 0 0 604.48 524.03   L 604.30 606.22   Q 604.30 606.94 603.59 606.80   Q 594.63 605.01 584.97 604.04   Q 532.35 598.73 483.00 595.30   Q 471.42 594.50 458.67 593.95   Q 455.79 593.82 452.99 594.76   C 417.86 606.51 381.44 620.17 343.21 635.06   Q 341.85 635.58 341.85 637.04   L 341.81 688.72   Q 341.81 689.09 341.43 689.05   Q 311.77 685.68 280.43 684.22   Q 279.75 684.19 279.74 683.51   L 279.54 666.32   A 0.46 0.46 0.0 0 1 279.96 665.85   C 293.69 664.50 304.31 653.51 306.51 640.00   Q 307.94 631.19 303.90 623.78   A 0.40 0.39 53.8 0 1 303.97 623.30   Q 310.92 616.45 318.08 607.84   Q 336.49 585.71 350.20 561.27   Q 367.22 530.90 381.46 499.68   Q 386.44 488.75 391.06 474.17   Q 391.26 473.55 391.87 473.76   Q 403.89 477.75 412.78 468.15   Q 413.13 467.77 413.61 467.95   Q 416.54 469.04 419.58 470.17   Q 446.68 480.26 475.85 478.83   C 495.53 477.87 513.49 468.37 527.88 454.55   Q 542.02 440.97 548.92 430.48   C 553.25 423.90 557.73 413.18 562.50 404.96   Q 565.21 400.28 568.16 395.82   A 0.53 0.52 26.8 0 1 568.79 395.62   Q 580.92 400.21 589.70 391.15   A 0.98 0.98 0.0 0 1 590.99 391.05   C 617.41 411.17 647.61 426.09 679.40 432.26   A 1.36 1.35 87.9 0 1 680.45 433.24   C 683.48 444.51 693.59 451.13 704.67 451.88   Q 705.26 451.92 705.26 452.52   L 705.29 481.91   Q 705.29 482.45 704.79 482.65   L 605.71 522.22   Z" />
<path d="   M 713.06 409.31   A 0.70 0.70 0.0 0 1 712.82 408.35   L 713.01 408.04   A 3.25 2.20 30.9 0 1 716.92 407.82   L 721.85 410.77   A 3.25 2.20 30.9 0 1 723.51 414.32   L 723.32 414.63   A 0.70 0.70 0.0 0 1 722.36 414.87   L 713.06 409.31   Z" />
<path d="   M 705.34 519.38   A 1.22 1.22 0.0 0 0 706.64 520.60   L 708.66 520.48   A 1.24 1.23 88.3 0 0 709.82 519.24   L 709.67 488.01   A 0.84 0.83 -88.7 0 1 710.54 487.17   Q 787.67 490.76 864.20 498.15   Q 865.58 498.28 864.25 498.70   Q 813.63 514.56 764.41 530.96   A 9.36 9.34 38.1 0 1 760.74 531.40   C 713.89 527.53 667.42 525.28 619.92 522.07   Q 619.33 522.03 619.62 521.52   Q 619.84 521.14 620.58 521.07   Q 621.11 521.01 621.43 520.88   Q 665.29 503.40 704.93 487.27   A 0.29 0.29 0.0 0 1 705.33 487.54   L 705.34 519.38   Z   M 772.1931 496.5304   A 5.74 3.20 4.4 0 0 766.7155 492.8994   A 5.74 3.20 4.4 0 0 760.7469 495.6496   A 5.74 3.20 4.4 0 0 766.2245 499.2806   A 5.74 3.20 4.4 0 0 772.1931 496.5304   Z   M 752.8968 503.2100   A 5.73 3.31 1.9 0 0 747.2797 499.7118   A 5.73 3.31 1.9 0 0 741.4432 502.8300   A 5.73 3.31 1.9 0 0 747.0603 506.3282   A 5.73 3.31 1.9 0 0 752.8968 503.2100   Z   M 790.2333 506.4028   A 6.08 4.52 -6.3 0 0 783.6940 502.5773   A 6.08 4.52 -6.3 0 0 778.1467 507.7372   A 6.08 4.52 -6.3 0 0 784.6860 511.5627   A 6.08 4.52 -6.3 0 0 790.2333 506.4028   Z   M 772.7279 509.9582   A 4.66 3.08 1.7 0 0 768.1614 506.7414   A 4.66 3.08 1.7 0 0 763.4121 509.6818   A 4.66 3.08 1.7 0 0 767.9786 512.8986   A 4.66 3.08 1.7 0 0 772.7279 509.9582   Z   M 755.0460 517.1730   A 5.23 3.34 4.2 0 0 750.0746 513.4590   A 5.23 3.34 4.2 0 0 744.6140 516.4070   A 5.23 3.34 4.2 0 0 749.5854 520.1210   A 5.23 3.34 4.2 0 0 755.0460 517.1730   Z" />
<path d="   M 609.63 609.45   C 609.23 608.14 608.89 606.77 608.90 605.35   Q 609.03 566.43 608.96 526.62   A 0.52 0.52 0.0 0 1 609.51 526.10   L 761.00 535.70   Q 761.75 535.75 761.75 536.50   L 761.75 782.27   A 0.61 0.61 0.0 0 1 761.13 782.88   Q 682.43 782.54 610.84 782.82   Q 610.23 782.82 610.23 782.21   L 609.78 610.47   A 3.57 3.53 37.0 0 0 609.63 609.45   Z   M 750.1800 592.1381   A 2.20 1.83 98.1 0 0 752.3017 590.2178   A 2.20 1.83 98.1 0 0 750.8000 587.7819   A 2.20 1.83 98.1 0 0 748.6783 589.7022   A 2.20 1.83 98.1 0 0 750.1800 592.1381   Z   M 753.4372 602.8537   A 1.78 1.78 0.0 0 0 751.6604 601.0706   L 751.0204 601.0695   A 1.78 1.78 0.0 0 0 749.2372 602.8463   L 749.2028 622.6063   A 1.78 1.78 0.0 0 0 750.9796 624.3894   L 751.6196 624.3905   A 1.78 1.78 0.0 0 0 753.4028 622.6137   L 753.4372 602.8537   Z   M 743.9356 623.7005   A 1.95 1.95 0.0 0 0 742.0027 621.7335   L 741.6627 621.7306   A 1.95 1.95 0.0 0 0 739.6958 623.6635   L 738.7844 728.0995   A 1.95 1.95 0.0 0 0 740.7173 730.0665   L 741.0573 730.0694   A 1.95 1.95 0.0 0 0 743.0242 728.1365   L 743.9356 623.7005   Z   M 755.7784 637.7602   A 1.72 1.72 0.0 0 0 754.1102 635.9899   L 753.5104 635.9721   A 1.72 1.72 0.0 0 0 751.7402 637.6404   L 751.7016 638.9398   A 1.72 1.72 0.0 0 0 753.3698 640.7101   L 753.9696 640.7279   A 1.72 1.72 0.0 0 0 755.7398 639.0596   L 755.7784 637.7602   Z   M 752.95 775.19   L 754.95 648.50   Q 754.97 646.81 753.27 646.78   L 752.18 646.76   Q 750.62 646.74 750.60 648.30   L 748.59 775.19   Q 748.56 776.84 750.22 776.87   L 751.18 776.89   Q 752.92 776.92 752.95 775.19   Z   M 723.70 767.74   A 2.21 2.21 0.0 0 0 721.49 765.53   A 2.21 2.21 0.0 0 0 719.28 767.74   A 2.21 2.21 0.0 0 0 721.49 769.95   A 2.21 2.21 0.0 0 0 723.70 767.74   Z   M 735.2947 766.8102   A 1.20 1.20 0.0 0 0 734.0801 765.6250   L 733.2202 765.6355   A 1.20 1.20 0.0 0 0 732.0350 766.8501   L 732.0853 770.9698   A 1.20 1.20 0.0 0 0 733.2999 772.1550   L 734.1598 772.1445   A 1.20 1.20 0.0 0 0 735.3450 770.9299   L 735.2947 766.8102   Z" />
<path d="   M 601.54 611.73   L 499.36 648.26   Q 497.93 648.77 496.42 648.61   C 450.78 643.88 403.51 639.76 357.09 635.46   Q 354.92 635.26 356.94 634.44   C 358.51 633.80 360.30 633.49 361.92 632.85   Q 404.05 616.36 446.96 601.53   Q 450.40 600.34 453.74 599.32   Q 456.82 598.39 460.82 598.61   C 487.09 600.01 512.71 602.20 538.48 604.26   Q 567.58 606.59 598.26 610.09   Q 600.25 610.32 601.60 611.31   Q 601.97 611.58 601.54 611.73   Z   M 454.0537 614.8491   A 5.61 4.22 -15.2 0 0 447.5336 612.2476   A 5.61 4.22 -15.2 0 0 443.2263 617.7909   A 5.61 4.22 -15.2 0 0 449.7464 620.3924   A 5.61 4.22 -15.2 0 0 454.0537 614.8491   Z   M 483.4823 618.8945   A 5.26 3.26 3.1 0 0 478.4063 615.3548   A 5.26 3.26 3.1 0 0 472.9777 618.3255   A 5.26 3.26 3.1 0 0 478.0537 621.8652   A 5.26 3.26 3.1 0 0 483.4823 618.8945   Z   M 499.0191 622.8845   A 6.58 3.85 -11.0 0 0 491.8254 620.3607   A 6.58 3.85 -11.0 0 0 486.1009 625.3955   A 6.58 3.85 -11.0 0 0 493.2946 627.9193   A 6.58 3.85 -11.0 0 0 499.0191 622.8845   Z   M 466.1740 627.8216   A 4.43 3.12 9.9 0 0 462.3464 623.9865   A 4.43 3.12 9.9 0 0 457.4460 626.2984   A 4.43 3.12 9.9 0 0 461.2736 630.1335   A 4.43 3.12 9.9 0 0 466.1740 627.8216   Z   M 447.9410 633.3731   A 5.11 3.31 3.4 0 0 443.0363 629.7658   A 5.11 3.31 3.4 0 0 437.7390 632.7669   A 5.11 3.31 3.4 0 0 442.6437 636.3742   A 5.11 3.31 3.4 0 0 447.9410 633.3731   Z" />
<path d="   M 280.07 618.42   A 0.53 0.53 0.0 0 1 279.87 617.69   L 280.02 617.43   A 2.19 1.49 -60.3 0 1 282.40 616.27   L 282.64 616.41   A 2.19 1.49 -60.3 0 1 282.85 619.05   L 282.70 619.31   A 0.53 0.53 0.0 0 1 281.98 619.51   L 280.07 618.42   Z" />
<path d="   M 295.25 624.45   Q 292.17 621.32 287.31 619.87   A 0.79 0.79 0.0 0 1 286.77 618.96   L 286.95 618.09   Q 287.15 617.15 288.10 617.27   Q 295.10 618.12 298.49 623.68   Q 299.71 625.69 298.51 627.53   A 0.90 0.90 0.0 0 1 297.02 627.55   C 296.32 626.56 296.10 625.30 295.25 624.45   Z" />
<path d="   M 347.28 639.24   L 495.47 652.84   A 0.82 0.82 0.0 0 1 496.21 653.63   Q 497.65 714.95 497.80 768.25   Q 497.82 775.37 497.73 782.14   A 0.70 0.70 0.0 0 1 497.02 782.83   L 346.92 782.74   Q 346.35 782.74 346.35 782.17   L 346.48 639.97   Q 346.48 639.16 347.28 639.24   Z   M 490.3974 705.7017   A 2.15 1.86 80.7 0 0 491.8856 703.2794   A 2.15 1.86 80.7 0 0 489.7026 701.4583   A 2.15 1.86 80.7 0 0 488.2144 703.8806   A 2.15 1.86 80.7 0 0 490.3974 705.7017   Z   M 493.5279 714.9317   A 1.13 1.13 0.0 0 0 492.4648 713.7385   L 492.2651 713.7270   A 1.13 1.13 0.0 0 0 491.0720 714.7901   L 491.0121 715.8283   A 1.13 1.13 0.0 0 0 492.0752 717.0215   L 492.2749 717.0330   A 1.13 1.13 0.0 0 0 493.4680 715.9699   L 493.5279 714.9317   Z   M 491.9689 729.9841   A 1.27 1.27 0.0 0 0 490.6704 728.7432   L 488.8109 728.7854   A 1.27 1.27 0.0 0 0 487.5700 730.0839   L 488.2711 760.9759   A 1.27 1.27 0.0 0 0 489.5696 762.2168   L 491.4291 762.1746   A 1.27 1.27 0.0 0 0 492.6700 760.8761   L 491.9689 729.9841   Z   M 481.9671 735.1183   A 2.17 1.56 87.7 0 0 483.4387 732.8874   A 2.17 1.56 87.7 0 0 481.7929 730.7817   A 2.17 1.56 87.7 0 0 480.3213 733.0126   A 2.17 1.56 87.7 0 0 481.9671 735.1183   Z   M 483.3950 747.0188   A 1.17 1.17 0.0 0 0 482.2008 745.8735   L 480.4612 745.9100   A 1.17 1.17 0.0 0 0 479.3159 747.1042   L 479.6050 760.9012   A 1.17 1.17 0.0 0 0 480.7992 762.0465   L 482.5388 762.0100   A 1.17 1.17 0.0 0 0 483.6841 760.8158   L 483.3950 747.0188   Z   M 471.71 770.93   L 471.96 768.89   A 2.18 2.17 23.9 0 0 471.22 766.98   Q 469.98 765.92 469.41 767.12   Q 468.99 767.99 469.50 768.82   Q 470.43 770.36 470.35 772.29   Q 470.33 772.84 470.76 773.17   Q 471.50 773.73 472.41 773.30   A 0.75 0.75 0.0 0 0 472.48 771.99   L 472.10 771.75   A 0.84 0.83 -70.8 0 1 471.71 770.93   Z   M 461.95 768.59   A 2.04 2.04 0.0 0 0 459.91 766.55   A 2.04 2.04 0.0 0 0 457.87 768.59   A 2.04 2.04 0.0 0 0 459.91 770.63   A 2.04 2.04 0.0 0 0 461.95 768.59   Z   M 481.4783 769.9098   A 1.69 1.31 -9.2 0 0 479.6006 768.8869   A 1.69 1.31 -9.2 0 0 478.1417 770.4502   A 1.69 1.31 -9.2 0 0 480.0194 771.4731   A 1.69 1.31 -9.2 0 0 481.4783 769.9098   Z" />
<path d="   M 278.20 721.58   Q 279.87 721.39 279.87 719.70   L 279.88 689.52   Q 279.88 688.66 280.74 688.71   Q 310.95 690.34 341.32 693.54   Q 341.74 693.59 341.74 694.01   L 341.73 735.21   A 0.36 0.36 0.0 0 1 341.33 735.57   Q 335.26 734.92 328.28 734.54   Q 253.75 730.56 178.89 726.58   Q 178.62 726.57 178.37 726.48   Q 177.22 726.11 178.34 725.65   C 210.17 712.68 241.88 699.88 274.65 689.06   A 0.57 0.56 -9.1 0 1 275.39 689.59   L 275.49 720.06   Q 275.49 721.89 277.31 721.68   L 278.20 721.58   Z   M 317.3824 705.7110   A 5.56 3.46 3.0 0 0 312.0111 701.9647   A 5.56 3.46 3.0 0 0 306.2776 705.1290   A 5.56 3.46 3.0 0 0 311.6489 708.8753   A 5.56 3.46 3.0 0 0 317.3824 705.7110   Z   M 334.7599 712.7004   A 5.67 3.81 -0.4 0 0 329.0634 708.9301   A 5.67 3.81 -0.4 0 0 323.4201 712.7796   A 5.67 3.81 -0.4 0 0 329.1166 716.5499   A 5.67 3.81 -0.4 0 0 334.7599 712.7004   Z   M 306.9273 715.1735   A 4.75 3.17 5.6 0 0 302.5093 711.5551   A 4.75 3.17 5.6 0 0 297.4727 714.2465   A 4.75 3.17 5.6 0 0 301.8907 717.8649   A 4.75 3.17 5.6 0 0 306.9273 715.1735   Z" />
<path d="   M 167.35 730.67   L 341.20 739.86   A 0.57 0.57 0.0 0 1 341.74 740.43   L 341.78 782.23   A 0.57 0.57 0.0 0 1 341.21 782.80   L 167.32 782.66   A 0.57 0.57 0.0 0 1 166.75 782.09   L 166.75 731.24   A 0.57 0.57 0.0 0 1 167.35 730.67   Z   M 279.83 768.78   A 2.30 2.30 0.0 0 0 277.53 766.48   A 2.30 2.30 0.0 0 0 275.23 768.78   A 2.30 2.30 0.0 0 0 277.53 771.08   A 2.30 2.30 0.0 0 0 279.83 768.78   Z   M 295.0187 767.9458   A 2.02 1.77 -10.1 0 0 292.7196 766.5574   A 2.02 1.77 -10.1 0 0 291.0413 768.6542   A 2.02 1.77 -10.1 0 0 293.3404 770.0426   A 2.02 1.77 -10.1 0 0 295.0187 767.9458   Z   M 302.06 769.02   C 302.68 770.12 303.42 771.39 302.97 772.70   Q 302.73 773.41 303.40 773.73   Q 304.01 774.02 304.57 773.63   A 0.92 0.91 -30.2 0 0 304.87 772.51   Q 304.07 770.78 303.90 768.84   Q 303.85 768.22 303.31 767.90   Q 302.81 767.60 302.25 768.06   A 0.76 0.76 0.0 0 0 302.06 769.02   Z   M 315.9337 769.8439   A 1.57 0.88 -10.5 0 0 314.2296 769.2647   A 1.57 0.88 -10.5 0 0 312.8463 770.4161   A 1.57 0.88 -10.5 0 0 314.5504 770.9953   A 1.57 0.88 -10.5 0 0 315.9337 769.8439   Z" />
</g>
<g fill="#000000" id="Group-000000">
<rect x="-11.57" y="-2.36" transform="translate(838.16,219.73) rotate(-25.3)" width="23.14" height="4.72" rx="2.09" />
<rect x="-18.43" y="-2.31" transform="translate(852.99,243.81) rotate(-21.7)" width="36.86" height="4.62" rx="2.12" />
<path d="   M 760.85 787.32   Q 731.60 787.56 702.15 787.40   C 676.01 787.26 649.89 787.56 623.75 787.37   Q 613.41 787.29 603.75 787.30   Q 505.34 787.32 403.51 787.51   C 385.42 787.54 366.97 787.29 349.08 787.39   C 346.94 787.41 344.94 788.10 342.84 787.80   Q 340.52 787.47 338.22 787.46   Q 280.23 787.34 222.25 787.49   Q 214.20 787.51 207.10 787.26   Q 188.24 787.51 170.25 787.39   Q 167.81 787.37 165.55 787.64   C 163.32 787.91 161.13 787.27 158.88 787.29   Q 138.17 787.51 116.90 787.35   A 1.76 1.74 -9.9 0 1 115.27 786.22   Q 115.03 785.58 115.09 784.94   Q 115.32 782.68 117.59 782.68   L 161.77 782.69   A 0.46 0.46 0.0 0 0 162.23 782.23   L 162.34 728.30   A 1.66 1.66 0.0 0 1 163.37 726.78   C 194.80 714.01 226.50 701.09 257.93 689.93   Q 266.39 686.92 274.94 684.47   Q 275.31 684.36 275.31 683.97   L 274.95 666.28   A 0.44 0.44 0.0 0 0 274.57 665.86   C 254.32 663.31 248.90 641.57 258.67 626.29   C 262.78 619.87 270.88 614.27 278.31 612.81   Q 291.03 610.31 301.00 619.26   A 0.83 0.82 42.3 0 0 302.16 619.21   Q 330.06 589.44 349.69 553.23   Q 365.94 523.28 376.94 499.37   Q 382.41 487.48 387.38 471.46   Q 387.55 470.92 387.11 470.55   C 377.84 462.73 380.02 448.79 389.30 442.14   C 396.90 436.69 406.95 438.18 412.97 445.40   C 416.95 450.16 417.94 457.64 415.52 463.35   A 0.51 0.50 23.3 0 0 415.79 464.01   Q 440.43 474.49 468.27 474.70   Q 479.38 474.79 487.39 472.76   C 510.19 467.01 527.60 451.02 542.30 432.22   Q 546.95 426.27 550.39 419.07   Q 556.94 405.34 564.37 393.19   Q 564.62 392.78 564.30 392.41   Q 554.72 381.44 562.08 369.33   Q 565.44 363.81 573.04 361.79   C 587.11 358.06 598.95 373.30 592.85 386.33   A 0.59 0.57 31.6 0 0 593.03 387.04   C 619.00 407.04 647.60 421.29 678.98 427.89   A 0.59 0.59 0.0 0 0 679.69 427.31   C 679.72 414.11 688.69 404.39 701.54 402.33   Q 715.07 400.17 725.88 408.63   Q 726.26 408.93 726.60 408.58   Q 740.97 393.85 749.70 376.30   Q 754.06 367.55 758.38 356.28   Q 766.52 335.07 773.51 313.81   Q 773.66 313.34 773.20 313.15   Q 761.32 308.23 749.73 303.90   C 747.32 303.00 745.82 300.58 748.51 298.69   Q 773.35 281.21 799.71 263.13   Q 800.73 262.43 802.05 262.84   A 1.78 1.78 0.0 0 1 803.29 264.39   C 805.02 284.51 806.15 304.72 807.27 325.53   A 1.40 1.40 0.0 0 1 806.47 326.87   Q 805.36 327.38 803.97 326.74   Q 791.35 320.95 778.32 315.48   A 0.66 0.65 20.5 0 0 777.44 315.88   Q 768.71 342.43 758.19 368.19   Q 748.56 391.76 729.45 412.04   Q 728.99 412.52 729.41 413.05   Q 732.55 417.07 733.58 422.08   C 736.97 438.62 726.47 451.00 710.34 452.17   A 0.71 0.71 0.0 0 0 709.68 452.87   Q 709.41 468.40 709.72 482.17   A 0.51 0.50 0.6 0 0 710.21 482.66   Q 786.12 485.94 863.04 493.55   C 867.51 493.99 872.26 494.14 876.83 494.51   A 2.20 2.19 -87.6 0 1 878.84 496.70   L 878.87 782.30   Q 878.87 782.72 879.30 782.72   L 922.48 782.66   Q 924.38 782.65 924.69 784.53   L 924.74 784.88   Q 925.16 787.39 922.61 787.39   L 760.85 787.32   Z   M 605.71 522.22   L 704.79 482.65   Q 705.29 482.45 705.29 481.91   L 705.26 452.52   Q 705.26 451.92 704.67 451.88   C 693.59 451.13 683.48 444.51 680.45 433.24   A 1.36 1.35 87.9 0 0 679.40 432.26   C 647.61 426.09 617.41 411.17 590.99 391.05   A 0.98 0.98 0.0 0 0 589.70 391.15   Q 580.92 400.21 568.79 395.62   A 0.53 0.52 26.8 0 0 568.16 395.82   Q 565.21 400.28 562.50 404.96   C 557.73 413.18 553.25 423.90 548.92 430.48   Q 542.02 440.97 527.88 454.55   C 513.49 468.37 495.53 477.87 475.85 478.83   Q 446.68 480.26 419.58 470.17   Q 416.54 469.04 413.61 467.95   Q 413.13 467.77 412.78 468.15   Q 403.89 477.75 391.87 473.76   Q 391.26 473.55 391.06 474.17   Q 386.44 488.75 381.46 499.68   Q 367.22 530.90 350.20 561.27   Q 336.49 585.71 318.08 607.84   Q 310.92 616.45 303.97 623.30   A 0.40 0.39 53.8 0 0 303.90 623.78   Q 307.94 631.19 306.51 640.00   C 304.31 653.51 293.69 664.50 279.96 665.85   A 0.46 0.46 0.0 0 0 279.54 666.32   L 279.74 683.51   Q 279.75 684.19 280.43 684.22   Q 311.77 685.68 341.43 689.05   Q 341.81 689.09 341.81 688.72   L 341.85 637.04   Q 341.85 635.58 343.21 635.06   C 381.44 620.17 417.86 606.51 452.99 594.76   Q 455.79 593.82 458.67 593.95   Q 471.42 594.50 483.00 595.30   Q 532.35 598.73 584.97 604.04   Q 594.63 605.01 603.59 606.80   Q 604.30 606.94 604.30 606.22   L 604.48 524.03   A 1.95 1.95 0.0 0 1 605.71 522.22   Z   M 713.06 409.31   L 722.36 414.87   A 0.70 0.70 0.0 0 0 723.32 414.63   L 723.51 414.32   A 3.25 2.20 30.9 0 0 721.85 410.77   L 716.92 407.82   A 3.25 2.20 30.9 0 0 713.01 408.04   L 712.82 408.35   A 0.70 0.70 0.0 0 0 713.06 409.31   Z   M 705.34 519.38   L 705.33 487.54   A 0.29 0.29 0.0 0 0 704.93 487.27   Q 665.29 503.40 621.43 520.88   Q 621.11 521.01 620.58 521.07   Q 619.84 521.14 619.62 521.52   Q 619.33 522.03 619.92 522.07   C 667.42 525.28 713.89 527.53 760.74 531.40   A 9.36 9.34 38.1 0 0 764.41 530.96   Q 813.63 514.56 864.25 498.70   Q 865.58 498.28 864.20 498.15   Q 787.67 490.76 710.54 487.17   A 0.84 0.83 -88.7 0 0 709.67 488.01   L 709.82 519.24   A 1.24 1.23 88.3 0 1 708.66 520.48   L 706.64 520.60   A 1.22 1.22 0.0 0 1 705.34 519.38   Z   M 609.63 609.45   A 3.57 3.53 37.0 0 1 609.78 610.47   L 610.23 782.21   Q 610.23 782.82 610.84 782.82   Q 682.43 782.54 761.13 782.88   A 0.61 0.61 0.0 0 0 761.75 782.27   L 761.75 536.50   Q 761.75 535.75 761.00 535.70   L 609.51 526.10   A 0.52 0.52 0.0 0 0 608.96 526.62   Q 609.03 566.43 608.90 605.35   C 608.89 606.77 609.23 608.14 609.63 609.45   Z   M 601.60 611.31   Q 600.25 610.32 598.26 610.09   Q 567.58 606.59 538.48 604.26   C 512.71 602.20 487.09 600.01 460.82 598.61   Q 456.82 598.39 453.74 599.32   Q 450.40 600.34 446.96 601.53   Q 404.05 616.36 361.92 632.85   C 360.30 633.49 358.51 633.80 356.94 634.44   Q 354.92 635.26 357.09 635.46   C 403.51 639.76 450.78 643.88 496.42 648.61   Q 497.93 648.77 499.36 648.26   L 601.54 611.73   Q 601.97 611.58 601.60 611.31   Z   M 280.07 618.42   L 281.98 619.51   A 0.53 0.53 0.0 0 0 282.70 619.31   L 282.85 619.05   A 2.19 1.49 -60.3 0 0 282.64 616.41   L 282.40 616.27   A 2.19 1.49 -60.3 0 0 280.02 617.43   L 279.87 617.69   A 0.53 0.53 0.0 0 0 280.07 618.42   Z   M 295.25 624.45   C 296.10 625.30 296.32 626.56 297.02 627.55   A 0.90 0.90 0.0 0 0 298.51 627.53   Q 299.71 625.69 298.49 623.68   Q 295.10 618.12 288.10 617.27   Q 287.15 617.15 286.95 618.09   L 286.77 618.96   A 0.79 0.79 0.0 0 0 287.31 619.87   Q 292.17 621.32 295.25 624.45   Z   M 347.28 639.24   Q 346.48 639.16 346.48 639.97   L 346.35 782.17   Q 346.35 782.74 346.92 782.74   L 497.02 782.83   A 0.70 0.70 0.0 0 0 497.73 782.14   Q 497.82 775.37 497.80 768.25   Q 497.65 714.95 496.21 653.63   A 0.82 0.82 0.0 0 0 495.47 652.84   L 347.28 639.24   Z   M 278.20 721.58   L 277.31 721.68   Q 275.49 721.89 275.49 720.06   L 275.39 689.59   A 0.57 0.56 -9.1 0 0 274.65 689.06   C 241.88 699.88 210.17 712.68 178.34 725.65   Q 177.22 726.11 178.37 726.48   Q 178.62 726.57 178.89 726.58   Q 253.75 730.56 328.28 734.54   Q 335.26 734.92 341.33 735.57   A 0.36 0.36 0.0 0 0 341.73 735.21   L 341.74 694.01   Q 341.74 693.59 341.32 693.54   Q 310.95 690.34 280.74 688.71   Q 279.88 688.66 279.88 689.52   L 279.87 719.70   Q 279.87 721.39 278.20 721.58   Z   M 167.35 730.67   A 0.57 0.57 0.0 0 0 166.75 731.24   L 166.75 782.09   A 0.57 0.57 0.0 0 0 167.32 782.66   L 341.21 782.80   A 0.57 0.57 0.0 0 0 341.78 782.23   L 341.74 740.43   A 0.57 0.57 0.0 0 0 341.20 739.86   L 167.35 730.67   Z" />
<rect x="-16.81" y="-2.36" transform="translate(862.42,272.30) rotate(-4.6)" width="33.62" height="4.72" rx="2.22" />
<rect x="-13.85" y="-2.35" transform="translate(860.19,303.09) rotate(3.1)" width="27.70" height="4.70" rx="2.19" />
<ellipse cx="0.00" cy="0.00" transform="translate(766.47,496.09) rotate(4.4)" rx="5.74" ry="3.20" />
<ellipse cx="0.00" cy="0.00" transform="translate(747.17,503.02) rotate(1.9)" rx="5.73" ry="3.31" />
<ellipse cx="0.00" cy="0.00" transform="translate(784.19,507.07) rotate(-6.3)" rx="6.08" ry="4.52" />
<ellipse cx="0.00" cy="0.00" transform="translate(768.07,509.82) rotate(1.7)" rx="4.66" ry="3.08" />
<ellipse cx="0.00" cy="0.00" transform="translate(749.83,516.79) rotate(4.2)" rx="5.23" ry="3.34" />
<rect x="-12.12" y="-2.31" transform="translate(164.94,581.06) rotate(33.0)" width="24.24" height="4.62" rx="1.87" />
<ellipse cx="0.00" cy="0.00" transform="translate(750.49,589.96) rotate(98.1)" rx="2.20" ry="1.83" />
<rect x="-19.23" y="-2.30" transform="translate(150.44,606.93) rotate(32.6)" width="38.46" height="4.60" rx="2.04" />
<rect x="-2.10" y="-11.66" transform="translate(751.32,612.73) rotate(0.1)" width="4.20" height="23.32" rx="1.78" />
<ellipse cx="0.00" cy="0.00" transform="translate(448.64,616.32) rotate(-15.2)" rx="5.61" ry="4.22" />
<ellipse cx="0.00" cy="0.00" transform="translate(478.23,618.61) rotate(3.1)" rx="5.26" ry="3.26" />
<ellipse cx="0.00" cy="0.00" transform="translate(492.56,624.14) rotate(-11.0)" rx="6.58" ry="3.85" />
<rect x="-2.12" y="-54.17" transform="translate(741.36,675.90) rotate(0.5)" width="4.24" height="108.34" rx="1.95" />
<ellipse cx="0.00" cy="0.00" transform="translate(461.81,627.06) rotate(9.9)" rx="4.43" ry="3.12" />
<rect x="-11.26" y="-2.36" transform="translate(141.69,632.62) rotate(16.2)" width="22.52" height="4.72" rx="2.30" />
<ellipse cx="0.00" cy="0.00" transform="translate(442.84,633.07) rotate(3.4)" rx="5.11" ry="3.31" />
<rect x="-2.02" y="-2.37" transform="translate(753.74,638.35) rotate(1.7)" width="4.04" height="4.74" rx="1.72" />
<path d="   M 754.95 648.50   L 752.95 775.19   Q 752.92 776.92 751.18 776.89   L 750.22 776.87   Q 748.56 776.84 748.59 775.19   L 750.60 648.30   Q 750.62 646.74 752.18 646.76   L 753.27 646.78   Q 754.97 646.81 754.95 648.50   Z" />
<rect x="-14.51" y="-2.33" transform="translate(137.13,661.56) rotate(2.7)" width="29.02" height="4.66" rx="1.92" />
<ellipse cx="0.00" cy="0.00" transform="translate(490.05,703.58) rotate(80.7)" rx="2.15" ry="1.86" />
<ellipse cx="0.00" cy="0.00" transform="translate(311.83,705.42) rotate(3.0)" rx="5.56" ry="3.46" />
<ellipse cx="0.00" cy="0.00" transform="translate(329.09,712.74) rotate(-0.4)" rx="5.67" ry="3.81" />
<ellipse cx="0.00" cy="0.00" transform="translate(302.20,714.71) rotate(5.6)" rx="4.75" ry="3.17" />
<rect x="-1.23" y="-1.65" transform="translate(492.27,715.38) rotate(3.3)" width="2.46" height="3.30" rx="1.13" />
<rect x="-2.20" y="-16.72" transform="translate(490.12,745.48) rotate(-1.3)" width="4.40" height="33.44" rx="1.27" />
<ellipse cx="0.00" cy="0.00" transform="translate(481.88,732.95) rotate(87.7)" rx="2.17" ry="1.56" />
<rect x="-2.04" y="-8.07" transform="translate(481.50,753.96) rotate(-1.2)" width="4.08" height="16.14" rx="1.17" />
<circle cx="721.49" cy="767.74" r="2.21" />
<rect x="-1.63" y="-3.26" transform="translate(733.69,768.89) rotate(-0.7)" width="3.26" height="6.52" rx="1.20" />
<circle cx="277.53" cy="768.78" r="2.30" />
<ellipse cx="0.00" cy="0.00" transform="translate(293.03,768.30) rotate(-10.1)" rx="2.02" ry="1.77" />
<path d="   M 472.10 771.75   L 472.48 771.99   A 0.75 0.75 0.0 0 1 472.41 773.30   Q 471.50 773.73 470.76 773.17   Q 470.33 772.84 470.35 772.29   Q 470.43 770.36 469.50 768.82   Q 468.99 767.99 469.41 767.12   Q 469.98 765.92 471.22 766.98   A 2.18 2.17 23.9 0 1 471.96 768.89   L 471.71 770.93   A 0.84 0.83 -70.8 0 0 472.10 771.75   Z" />
<circle cx="459.91" cy="768.59" r="2.04" />
<path d="   M 302.97 772.70   C 303.42 771.39 302.68 770.12 302.06 769.02   A 0.76 0.76 0.0 0 1 302.25 768.06   Q 302.81 767.60 303.31 767.90   Q 303.85 768.22 303.90 768.84   Q 304.07 770.78 304.87 772.51   A 0.92 0.91 -30.2 0 1 304.57 773.63   Q 304.01 774.02 303.40 773.73   Q 302.73 773.41 302.97 772.70   Z" />
<ellipse cx="0.00" cy="0.00" transform="translate(479.81,770.18) rotate(-9.2)" rx="1.69" ry="1.31" />
<ellipse cx="0.00" cy="0.00" transform="translate(314.39,770.13) rotate(-10.5)" rx="1.57" ry="0.88" />
<ellipse cx="0.00" cy="0.00" transform="translate(875.09,799.81) rotate(-18.1)" rx="5.82" ry="4.24" />
<ellipse cx="0.00" cy="0.00" transform="translate(432.85,802.31) rotate(-2.7)" rx="6.29" ry="3.70" />
<ellipse cx="0.00" cy="0.00" transform="translate(846.81,804.46) rotate(-3.1)" rx="6.01" ry="4.14" />
<ellipse cx="0.00" cy="0.00" transform="translate(305.75,805.30) rotate(-9.4)" rx="5.97" ry="4.12" />
<ellipse cx="0.00" cy="0.00" transform="translate(204.09,806.90) rotate(-1.9)" rx="5.48" ry="4.05" />
<circle cx="667.69" cy="805.52" r="2.04" />
<ellipse cx="0.00" cy="0.00" transform="translate(350.39,809.59) rotate(-4.9)" rx="6.15" ry="4.05" />
<ellipse cx="0.00" cy="0.00" transform="translate(156.15,810.52) rotate(-1.2)" rx="5.17" ry="3.59" />
<ellipse cx="0.00" cy="0.00" transform="translate(945.63,810.55) rotate(-3.7)" rx="5.59" ry="3.63" />
<path d="   M 658.87 811.71   Q 657.03 814.06 654.74 814.70   Q 650.21 815.97 646.92 812.89   Q 645.72 809.49 648.88 808.14   Q 657.41 804.51 658.87 811.71   Z" />
<ellipse cx="0.00" cy="0.00" transform="translate(752.13,811.59) rotate(-3.7)" rx="5.93" ry="3.94" />
<ellipse cx="0.00" cy="0.00" transform="translate(886.94,814.98) rotate(-2.5)" rx="6.05" ry="3.91" />
<path d="   M 425.73 818.91   Q 422.97 822.29 418.50 821.77   Q 414.80 821.34 414.53 817.67   C 416.01 809.54 430.40 810.58 425.73 818.91   Z" />
<ellipse cx="0.00" cy="0.00" transform="translate(222.97,819.20) rotate(-7.6)" rx="6.72" ry="4.91" />
<ellipse cx="0.00" cy="0.00" transform="translate(288.73,818.85) rotate(-2.8)" rx="5.24" ry="3.62" />
<ellipse cx="0.00" cy="0.00" transform="translate(139.62,819.16) rotate(-1.3)" rx="5.63" ry="3.60" />
<ellipse cx="0.00" cy="0.00" transform="translate(536.90,825.60) rotate(-2.1)" rx="5.77" ry="3.71" />
<circle cx="740.91" cy="845.39" r="2.36" />
<rect x="-14.09" y="-2.29" transform="translate(717.44,846.06) rotate(0.3)" width="28.18" height="4.58" rx="1.86" />
<rect x="-9.07" y="-2.43" transform="translate(100.81,847.67) rotate(0.4)" width="18.14" height="4.86" rx="2.35" />
</g>
<path fill="rgba(0,0,0,0)" d="   M 760.85 787.32   Q 760.55 790.72 757.38 792.61   Q 752.86 795.33 750.50 796.16   Q 734.29 801.92 717.00 804.78   Q 692.34 808.86 670.97 811.09   Q 664.59 811.75 658.87 811.71   Q 657.41 804.51 648.88 808.14   Q 645.72 809.49 646.92 812.89   Q 611.24 816.12 593.50 816.81   Q 574.13 817.56 554.76 818.41   C 533.64 819.32 508.60 819.64 492.25 819.66   Q 472.13 819.68 425.73 818.91   C 430.40 810.58 416.01 809.54 414.53 817.67   Q 413.68 817.80 412.64 818.22   Q 411.67 818.62 410.77 818.59   Q 380.68 817.49 350.75 815.80   Q 348.67 815.69 346.45 815.47   Q 331.38 814.02 316.10 812.97   Q 310.95 812.61 305.88 811.95   Q 301.34 811.35 295.70 810.77   Q 268.47 807.94 242.86 802.87   Q 223.08 798.95 211.27 793.04   Q 208.83 791.82 207.10 787.26   Q 214.20 787.51 222.25 787.49   Q 280.23 787.34 338.22 787.46   Q 340.52 787.47 342.84 787.80   C 344.94 788.10 346.94 787.41 349.08 787.39   C 366.97 787.29 385.42 787.54 403.51 787.51   Q 505.34 787.32 603.75 787.30   Q 613.41 787.29 623.75 787.37   C 649.89 787.56 676.01 787.26 702.15 787.40   Q 731.60 787.56 760.85 787.32   Z   M 439.1330 802.0137   A 6.29 3.70 -2.7 0 0 432.6757 798.6141   A 6.29 3.70 -2.7 0 0 426.5670 802.6063   A 6.29 3.70 -2.7 0 0 433.0243 806.0059   A 6.29 3.70 -2.7 0 0 439.1330 802.0137   Z   M 311.6398 804.3249   A 5.97 4.12 -9.4 0 0 305.0771 801.2353   A 5.97 4.12 -9.4 0 0 299.8602 806.2751   A 5.97 4.12 -9.4 0 0 306.4229 809.3647   A 5.97 4.12 -9.4 0 0 311.6398 804.3249   Z   M 669.73 805.52   A 2.04 2.04 0.0 0 0 667.69 803.48   A 2.04 2.04 0.0 0 0 665.65 805.52   A 2.04 2.04 0.0 0 0 667.69 807.56   A 2.04 2.04 0.0 0 0 669.73 805.52   Z   M 356.5175 809.0647   A 6.15 4.05 -4.9 0 0 350.0441 805.5548   A 6.15 4.05 -4.9 0 0 344.2625 810.1153   A 6.15 4.05 -4.9 0 0 350.7359 813.6252   A 6.15 4.05 -4.9 0 0 356.5175 809.0647   Z" id="Group-rgba(0,0,0,0)" />
</g></svg>